<svg width="20" height="20" viewBox="0 0 20 20" fill="none" xmlns="http://www.w3.org/2000/svg">
<path d="M7.63594 5.90629C7.45462 5.70147 7.45469 5.4053 7.63612 5.20056C7.87342 4.93277 8.31325 4.93283 8.55047 5.20069L12.2867 9.41955C12.3543 9.49542 12.4079 9.58565 12.4445 9.68503C12.4812 9.78441 12.5 9.89098 12.5 9.99862C12.5 10.1063 12.4812 10.2128 12.4445 10.3122C12.4079 10.4116 12.3543 10.5018 12.2867 10.5777L8.55039 14.7988C8.31328 15.0667 7.87345 15.0667 7.63631 14.7989C7.45517 14.5943 7.45516 14.2984 7.63627 14.0938L11.26 9.99985L7.63594 5.90629Z" fill="#171717"/>
</svg>
